<svg version="1.1" viewBox="0.0 0.0 278.8031496062992 100.0" fill="none" stroke="none" stroke-linecap="square" stroke-miterlimit="10" xmlns:xlink="http://www.w3.org/1999/xlink" xmlns="http://www.w3.org/2000/svg"><clipPath id="p.0"><path d="m0 0l278.80316 0l0 100.0l-278.80316 0l0 -100.0z" clip-rule="nonzero"/></clipPath><g clip-path="url(#p.0)"><path fill="#000000" fill-opacity="0.0" d="m0 0l278.80316 0l0 100.0l-278.80316 0z" fill-rule="evenodd"/><path fill="#000000" fill-opacity="0.0" d="m14.800525 0l256.44092 0l0 88.88189l-256.44092 0z" fill-rule="evenodd"/><path fill="#000000" d="m18.206776 50.7125q0 -8.921875 4.21875 -14.34375q4.21875 -5.421875 11.0625 -5.421875q6.8125 0 10.78125 4.65625l0 -20.203125l6.625 0l0 55.0l-6.09375 0l-0.3125 -4.15625q-3.984375 4.875 -11.0625 4.875q-6.734375 0 -10.984375 -5.515625q-4.234375 -5.515625 -4.234375 -14.390625l0 -0.5zm6.625 0.75q0 6.578125 2.71875 10.3125q2.71875 3.71875 7.515625 3.71875q6.296875 0 9.203125 -5.65625l0 -17.796875q-2.96875 -5.46875 -9.125 -5.46875q-4.875 0 -7.59375 3.765625q-2.71875 3.75 -2.71875 11.125zm60.26074 15.109375q-3.875 4.546875 -11.359375 4.546875q-6.1875 0 -9.4375 -3.59375q-3.2343712 -3.609375 -3.2656212 -10.65625l0 -25.203125l6.624996 0l0 25.015625q0 8.8125 7.15625 8.8125q7.59375 0 10.09375 -5.65625l0 -28.171875l6.625 0l0 38.734375l-6.296875 0l-0.140625 -3.828125zm22.736069 -34.90625l0.171875 4.296875q4.265625 -5.015625 11.5 -5.015625q8.125 0 11.0625 6.21875q1.921875 -2.78125 5.015625 -4.5q3.109375 -1.71875 7.328125 -1.71875q12.75 0 12.96875 13.5l0 25.953125l-6.625 0l0 -25.5625q0 -4.15625 -1.90625 -6.203125q-1.890625 -2.0625 -6.375 -2.0625q-3.6875 0 -6.125 2.203125q-2.421875 2.1875 -2.8125 5.921875l0 25.703125l-6.671875 0l0 -25.390625q0 -8.4375 -8.265625 -8.4375q-6.515625 0 -8.921875 5.546875l0 28.28125l-6.609375 0l0 -38.734375l6.265625 0zm64.26953 0l0.171875 4.296875q4.265625 -5.015625 11.5 -5.015625q8.125 0 11.0625 6.21875q1.921875 -2.78125 5.015625 -4.5q3.109375 -1.71875 7.328125 -1.71875q12.75 0 12.96875 13.5l0 25.953125l-6.625 0l0 -25.5625q0 -4.15625 -1.90625 -6.203125q-1.890625 -2.0625 -6.375 -2.0625q-3.6875 0 -6.125 2.203125q-2.421875 2.1875 -2.8125 5.921875l0 25.703125l-6.671875 0l0 -25.390625q0 -8.4375 -8.265625 -8.4375q-6.515625 0 -8.921875 5.546875l0 28.28125l-6.609375 0l0 -38.734375l6.265625 0zm70.70703 29.03125l9.015625 -29.03125l7.09375 0l-15.578125 44.71875q-3.609375 9.65625 -11.484375 9.65625l-1.25 -0.09375l-2.484375 -0.46875l0 -5.375l1.796875 0.140625q3.359375 0 5.234375 -1.359375q1.890625 -1.359375 3.109375 -4.96875l1.46875 -3.9375l-13.828125 -38.3125l7.234375 0l9.671875 29.03125z" fill-rule="nonzero"/><path fill="#000000" fill-opacity="0.0" d="m58.1916 17.412073l212.45561 0l0 66.11425l-21.954636 0.0026626587" fill-rule="evenodd"/><path stroke="#000000" stroke-width="4.0" stroke-linejoin="round" stroke-linecap="butt" d="m58.1916 17.412073l212.45561 0l0 66.11425l-21.954636 0.0026626587" fill-rule="evenodd"/><path fill="#000000" fill-opacity="0.0" d="m37.026245 17.412073l-28.650917 0l0 66.11811l212.46457 0" fill-rule="evenodd"/><path stroke="#000000" stroke-width="4.0" stroke-linejoin="round" stroke-linecap="butt" d="m37.026245 17.412073l-28.650917 0l0 66.11811l212.46457 0" fill-rule="evenodd"/></g></svg>
