<?xml version="1.0" standalone="no"?>
<!DOCTYPE svg PUBLIC "-//W3C//DTD SVG 20010904//EN"
 "http://www.w3.org/TR/2001/REC-SVG-20010904/DTD/svg10.dtd">
<svg version="1.0" xmlns="http://www.w3.org/2000/svg"
 width="1196.000000pt" height="1196.000000pt" viewBox="0 0 1196.000000 1196.000000"
 preserveAspectRatio="xMidYMid meet">
<metadata>
Created by potrace 1.11, written by Peter Selinger 2001-2013
</metadata>
<g transform="translate(0.000000,1196.000000) scale(0.100000,-0.100000)"
fill="#000000" stroke="none">
<path d="M7086 10154 c-31 -6 -58 -11 -59 -11 -1 0 -23 -10 -49 -22 -61 -29
-117 -82 -164 -156 -22 -33 -45 -66 -51 -73 -7 -7 -13 -20 -13 -28 0 -8 -4
-14 -8 -14 -5 0 -14 -11 -20 -25 -7 -14 -16 -31 -22 -38 -6 -7 -31 -43 -57
-82 -25 -38 -50 -71 -55 -73 -4 -2 -8 -8 -8 -13 0 -15 -215 -300 -232 -307 -5
-2 -8 -8 -8 -13 0 -6 -10 -20 -22 -33 -13 -13 -52 -59 -88 -102 -36 -44 -69
-84 -75 -90 -5 -6 -44 -49 -85 -95 -86 -95 -470 -482 -575 -579 -39 -36 -106
-96 -150 -135 -44 -38 -94 -83 -112 -100 -18 -16 -39 -35 -46 -40 -23 -19
-142 -120 -147 -125 -3 -3 -30 -25 -60 -50 -30 -25 -57 -47 -60 -50 -3 -3 -39
-33 -80 -65 -41 -33 -77 -62 -80 -65 -3 -3 -25 -21 -50 -40 -48 -37 -69 -54
-103 -83 -12 -10 -73 -58 -135 -105 -63 -48 -158 -121 -212 -162 -54 -41 -108
-83 -121 -92 -13 -9 -58 -42 -99 -73 -41 -30 -86 -63 -99 -73 -14 -9 -44 -32
-68 -49 -24 -18 -46 -33 -49 -33 -3 0 -12 -6 -19 -12 -25 -23 -38 -32 -185
-134 -239 -167 -610 -414 -620 -414 -6 0 -10 -4 -10 -10 0 -5 -7 -10 -15 -10
-8 0 -15 -4 -15 -10 0 -5 -7 -10 -15 -10 -8 0 -15 -4 -15 -9 0 -5 -13 -14 -30
-21 -17 -7 -30 -16 -30 -21 0 -5 -4 -9 -9 -9 -5 0 -83 -47 -173 -103 -244
-155 -309 -195 -356 -219 -23 -12 -42 -25 -42 -28 0 -4 -22 -17 -50 -30 -27
-13 -50 -27 -50 -30 0 -4 -15 -13 -32 -21 -18 -7 -35 -16 -38 -19 -3 -3 -59
-37 -125 -76 -66 -38 -129 -74 -140 -81 -11 -7 -27 -15 -35 -19 -8 -4 -52 -29
-97 -56 -45 -26 -86 -48 -92 -48 -6 0 -11 -4 -11 -10 0 -5 -4 -10 -8 -10 -10
0 -272 -145 -289 -160 -7 -6 -13 -8 -13 -4 0 3 -6 2 -12 -3 -15 -12 -158 -89
-383 -208 -60 -32 -115 -62 -121 -66 -6 -5 -14 -6 -17 -2 -4 3 -7 2 -7 -3 0
-5 -20 -18 -45 -29 -25 -11 -45 -23 -45 -27 0 -5 -8 -8 -18 -8 -10 0 -22 -4
-28 -9 -5 -5 -70 -40 -145 -78 -74 -39 -160 -86 -191 -106 -71 -45 -150 -122
-174 -167 -23 -45 -27 -145 -8 -182 8 -15 12 -28 9 -28 -6 0 39 -67 75 -113 8
-11 39 -30 68 -43 46 -21 63 -23 150 -20 91 4 209 31 297 67 17 7 33 12 38 11
20 -5 1 11 -64 53 -81 52 -115 88 -125 129 -14 64 42 106 276 206 91 39 179
77 195 85 119 54 202 93 280 130 50 24 101 48 115 54 14 6 32 15 40 20 8 6 51
28 95 49 44 22 116 58 160 82 44 23 118 63 165 88 47 24 100 53 118 64 17 11
32 16 32 11 0 -4 4 -3 8 3 4 6 45 31 92 55 47 24 87 47 90 50 6 6 31 16 44 17
5 0 12 4 15 10 3 5 42 28 86 51 138 74 219 117 260 141 45 26 92 52 180 100
33 18 148 83 255 143 107 61 204 115 215 121 10 6 25 17 33 24 7 6 18 12 24
12 5 0 30 14 55 30 24 17 46 30 47 30 3 0 106 59 156 90 82 50 169 103 185
113 11 7 23 17 27 22 4 6 8 7 8 3 0 -6 55 26 85 50 6 4 28 18 50 31 22 13 56
34 75 46 19 13 69 44 110 71 141 90 345 224 358 235 7 6 48 34 90 63 86 58
349 244 372 263 8 7 56 43 106 80 110 82 322 247 358 278 6 6 49 41 96 79 47
38 90 74 95 80 6 6 30 27 54 46 25 19 54 44 66 55 11 11 49 45 84 75 35 30 80
70 100 89 284 264 478 457 670 669 36 41 75 84 86 96 11 12 43 49 70 81 113
134 189 189 301 216 37 9 507 13 1879 15 1007 1 1846 5 1865 7 19 3 60 8 90
11 30 3 71 8 90 11 37 6 208 7 250 1 68 -9 137 -42 171 -83 53 -64 60 -172 18
-256 -21 -41 -86 -133 -118 -167 -91 -95 -200 -224 -229 -272 -25 -40 -23 -72
5 -82 9 -4 23 0 32 8 9 7 31 21 50 31 19 9 39 21 45 26 6 5 36 28 66 50 232
168 392 367 491 614 35 88 72 220 84 300 17 118 20 164 20 315 0 228 -14 343
-50 425 -34 79 -79 118 -160 141 -48 13 -4491 12 -4559 -2z"/>
<path d="M8220 8800 c-132 -17 -230 -35 -355 -66 -11 -3 -27 -7 -35 -9 -8 -2
-15 -4 -15 -4 0 -2 -229 -81 -246 -85 -9 -3 -25 -9 -35 -15 -47 -25 -214 -99
-214 -94 0 3 -6 1 -12 -5 -7 -5 -58 -33 -113 -62 -250 -133 -339 -202 -351
-273 -1 -7 -3 -16 -5 -22 -5 -16 11 -105 19 -105 4 0 16 -19 27 -42 25 -52
118 -146 164 -166 56 -24 115 -26 176 -7 30 10 55 21 55 25 0 4 11 11 24 14
14 3 31 12 38 19 23 22 198 112 361 186 80 36 286 102 367 118 39 8 55 11 55
13 0 1 12 3 26 5 15 2 43 6 63 9 107 17 156 20 311 20 150 0 288 -9 305 -19 3
-2 26 -6 50 -9 56 -7 102 -16 110 -21 4 -2 22 -7 40 -10 41 -7 301 -93 315
-105 5 -4 21 -11 35 -15 29 -9 238 -112 290 -143 124 -75 187 -99 256 -97 91
2 174 58 239 160 85 134 75 217 -38 308 -59 48 -217 137 -387 219 -162 78
-162 78 -245 108 -33 13 -69 26 -80 31 -56 23 -271 83 -330 93 -16 2 -55 9
-85 16 -50 10 -160 23 -202 24 -10 0 -18 3 -18 6 0 8 -496 7 -560 0z"/>
<path d="M8409 8066 c-2 -2 -17 -6 -34 -9 -49 -8 -80 -24 -120 -59 -82 -71
-91 -134 -88 -613 2 -354 3 -3165 1 -4020 -1 -474 3 -510 65 -577 58 -63 140
-82 310 -75 144 6 209 21 261 61 32 24 74 94 85 141 3 11 4 133 4 270 -6 1194
-6 3478 0 4385 2 300 -6 344 -77 414 -61 61 -124 80 -277 83 -69 2 -128 1
-130 -1z"/>
<path d="M7785 7915 c-5 -2 -44 -13 -85 -26 -208 -63 -370 -200 -394 -333 -2
-14 -7 -30 -10 -35 -6 -8 -16 -143 -17 -201 0 -14 2 -234 5 -490 6 -529 6
-3951 1 -4080 -5 -114 8 -149 64 -177 43 -22 81 -24 188 -9 125 18 233 91 248
166 2 11 7 26 12 33 8 13 12 5158 3 5156 -3 0 -9 -2 -15 -4z"/>
<path d="M9251 5728 c-1 -1201 -2 -2349 -3 -2553 -2 -359 -1 -372 20 -426 53
-133 178 -200 367 -195 142 5 180 68 150 256 -8 53 -10 3512 -3 4235 4 326 0
408 -21 483 -1 1 -1 3 -2 5 0 1 -2 13 -5 26 -12 67 -98 181 -179 237 -41 29
-203 93 -250 99 -20 2 -45 7 -55 10 -17 6 -18 -84 -19 -2177z"/>
<path d="M4997 6574 c-1 -1 -39 -4 -84 -7 -46 -3 -87 -9 -93 -12 -5 -3 -10 0
-10 7 0 8 -3 9 -8 3 -4 -5 -18 -11 -32 -13 -81 -10 -249 -49 -338 -79 -92 -31
-253 -102 -307 -136 -11 -6 -38 -23 -60 -37 -22 -14 -53 -32 -68 -40 -44 -22
-108 -80 -119 -109 -42 -102 82 -262 197 -256 40 2 90 18 134 43 25 14 55 30
66 36 11 6 22 13 25 16 11 11 168 84 230 107 71 27 181 61 220 68 14 3 36 7
50 10 90 20 346 26 450 12 30 -4 63 -8 72 -8 10 0 20 -5 23 -10 4 -5 10 -7 16
-4 8 6 129 -26 174 -44 11 -5 43 -17 70 -26 55 -19 232 -106 310 -152 107 -63
205 -62 268 3 51 51 56 60 68 109 15 58 1 110 -38 147 -54 51 -275 174 -428
238 -32 14 -170 61 -173 60 -1 -1 -26 5 -55 14 -56 16 -102 25 -209 41 -82 12
-342 26 -351 19z"/>
<path d="M4932 6023 c-35 -16 -60 -36 -76 -61 -45 -72 -46 -86 -45 -437 0
-165 1 -880 1 -1590 0 -887 3 -1304 11 -1335 27 -114 92 -154 250 -155 93 0
106 2 148 27 53 31 78 74 88 152 3 28 6 769 5 1646 -1 1488 -2 1598 -18 1647
-18 53 -55 95 -105 116 -14 6 -67 11 -117 12 -76 2 -98 -2 -142 -22z"/>
<path d="M4428 5884 c-3 -2 -15 -6 -26 -9 -55 -10 -136 -69 -187 -136 -14 -19
-32 -66 -41 -109 -4 -19 -9 -721 -10 -1560 -2 -839 -4 -1548 -4 -1577 -2 -75
29 -115 98 -130 49 -11 119 -5 153 12 86 44 119 125 120 298 0 51 0 781 0
1623 -1 1521 -2 1531 -22 1552 -11 12 -24 23 -29 23 -20 3 -25 4 -36 11 -6 4
-13 5 -16 2z"/>
<path d="M5597 5876 c-6 -20 0 -3320 6 -3346 27 -108 108 -167 237 -174 104
-5 146 47 134 163 -4 31 -6 193 -6 361 3 1081 1 2691 -3 2722 -15 110 -74 203
-153 240 -26 12 -54 23 -62 25 -82 19 -148 22 -153 9z"/>
<path d="M2018 5125 c-2 -2 -34 -6 -73 -9 -149 -11 -319 -59 -472 -134 -196
-96 -234 -140 -197 -232 34 -84 104 -101 204 -50 33 17 81 39 108 49 26 10 56
21 67 26 11 4 25 9 30 11 65 19 124 36 140 39 113 23 142 27 243 29 192 4 357
-34 563 -130 72 -33 131 -54 152 -54 69 0 125 78 110 153 -9 45 -73 100 -176
151 -103 51 -156 71 -237 92 -135 35 -162 39 -305 49 -55 4 -112 8 -127 10
-15 1 -29 1 -30 0z"/>
<path d="M2000 4728 c0 -4 -5 -8 -11 -8 -15 0 -33 -20 -55 -60 -18 -34 -19
-80 -20 -1145 -2 -1234 -5 -1175 63 -1221 52 -35 180 -27 227 14 24 22 58 90
51 102 -3 5 -2 11 2 13 5 3 8 490 7 1084 0 813 -3 1088 -13 1120 -12 44 -38
75 -81 98 -27 14 -170 17 -170 3z"/>
<path d="M1677 4624 c-2 -3 -13 -6 -23 -9 -42 -8 -91 -35 -125 -68 -72 -70
-69 -14 -70 -1146 0 -559 -1 -1029 -2 -1046 -3 -88 34 -129 116 -128 61 1 101
18 124 52 17 25 18 88 20 1186 2 1121 1 1161 -17 1162 -10 1 -20 0 -23 -3z"/>
<path d="M2458 4623 c-3 -4 -4 -525 -4 -1158 1 -1124 2 -1151 21 -1183 17 -27
41 -45 67 -47 3 0 9 -3 12 -6 11 -11 98 0 122 16 13 8 27 27 30 40 3 14 7 490
8 1058 2 1112 1 1117 -50 1184 -37 49 -193 121 -206 96z"/>
<path d="M8508 2535 c-1 -1 -70 -5 -153 -9 -153 -6 -219 -11 -290 -21 -22 -4
-53 -8 -70 -10 -107 -14 -138 -20 -205 -35 -25 -5 -58 -12 -74 -14 -32 -6
-139 -37 -231 -68 -73 -25 -239 -100 -243 -110 -2 -5 -8 -8 -13 -8 -20 0 -136
-89 -204 -156 -54 -54 -75 -83 -84 -115 -14 -50 -8 -102 16 -139 20 -30 43
-54 43 -44 0 3 6 1 14 -5 10 -8 396 -11 1437 -12 783 -1 1465 -2 1514 -3 76
-1 94 2 117 19 54 41 71 118 40 189 -39 88 -228 243 -382 314 -72 34 -196 83
-220 87 -8 2 -16 4 -17 5 -3 3 -3 3 -53 14 -19 5 -39 11 -45 14 -5 3 -16 7
-25 8 -8 1 -44 8 -80 17 -36 8 -99 20 -140 27 -41 6 -86 14 -100 16 -23 4 -64
9 -175 20 -22 2 -110 6 -195 10 -85 3 -160 7 -167 9 -6 2 -13 2 -15 0z"/>
<path d="M4877 2294 c-1 -1 -33 -4 -72 -8 -166 -14 -268 -31 -407 -67 -88 -22
-104 -28 -208 -77 -139 -65 -237 -172 -228 -250 7 -59 11 -65 48 -83 32 -15
131 -16 1065 -15 567 1 1037 3 1045 6 25 8 60 73 60 110 0 43 -24 80 -87 137
-66 60 -73 65 -73 56 0 -4 -4 -3 -8 3 -11 17 -97 58 -177 84 -38 12 -77 25
-85 28 -8 3 -24 7 -35 9 -11 2 -63 12 -115 23 -52 11 -117 22 -145 24 -27 2
-50 5 -50 6 0 7 -520 21 -528 14z"/>
<path d="M2046 2162 c-2 -1 -46 -5 -97 -7 -147 -6 -353 -42 -435 -76 -118 -48
-120 -50 -189 -118 -32 -32 -52 -72 -50 -96 3 -29 18 -53 40 -63 18 -8 240
-11 785 -9 l761 2 19 25 c11 14 20 39 20 56 0 30 -30 80 -58 98 -8 4 -21 17
-30 27 -9 10 -20 19 -25 19 -5 0 -22 9 -38 21 -16 11 -29 18 -29 14 0 -3 -12
3 -27 12 -15 10 -28 17 -30 16 -2 -1 -8 -1 -15 2 -19 6 -139 36 -168 42 -74
14 -129 20 -260 28 -162 10 -171 11 -174 7z"/>
</g>
</svg>
