<svg version="1.1" viewBox="0.0 0.0 100.0 119.86614173228347" fill="none" stroke="none" stroke-linecap="square" stroke-miterlimit="10" xmlns:xlink="http://www.w3.org/1999/xlink" xmlns="http://www.w3.org/2000/svg"><clipPath id="p.0"><path d="m0 0l100.0 0l0 119.86614l-100.0 0l0 -119.86614z" clip-rule="nonzero"/></clipPath><g clip-path="url(#p.0)"><path fill="#000000" fill-opacity="0.0" d="m0 0l100.0 0l0 119.86614l-100.0 0z" fill-rule="evenodd"/><path fill="#000000" d="m0 9.394l0 0c0 -5.188163 4.2058372 -9.394 9.394 -9.394l81.212006 0c2.4914398 0 4.880844 0.98972213 6.642555 2.7514389c1.7617188 1.7617166 2.751442 4.1511173 2.751442 6.642561l0 101.05452c0 5.1881638 -4.2058334 9.394005 -9.393997 9.394005l-81.212006 0c-5.188163 0 -9.394 -4.205841 -9.394 -9.394005z" fill-rule="evenodd"/><path fill="#000000" fill-opacity="0.0" d="m18.337284 -17.763779l66.04724 0l0 145.44882l-66.04724 0z" fill-rule="evenodd"/><path fill="#ffffff" d="m23.899784 65.20184q0 -14.578125 6.90625 -23.453125q6.921875 -8.890625 18.125 -8.890625q11.125 0 17.625004 7.625l0 -33.046875l10.84375 0l0 90.0l-9.953125 0l-0.53125 -6.796875q-6.500004 7.96875 -18.109379 7.96875q-11.015625 0 -17.96875 -9.015625q-6.9375 -9.03125 -6.9375 -23.5625l0 -0.828125zm10.84375 1.234375q0 10.78125 4.453125 16.875q4.453125 6.09375 12.3125 6.09375q10.3125 0 15.046879 -9.25l0 -29.125q-4.859379 -8.96875 -14.937504 -8.96875q-7.96875 0 -12.421875 6.15625q-4.453125 6.15625 -4.453125 18.21875z" fill-rule="nonzero"/><path fill="#000000" fill-opacity="0.0" d="m56.666668 11.783884l-45.501312 0l0 97.20975l77.6693 0l-0.0052490234 -101.109116" fill-rule="evenodd"/><path stroke="#ffffff" stroke-width="8.0" stroke-linejoin="round" stroke-linecap="butt" d="m56.666668 11.783884l-45.501312 0l0 97.20975l77.6693 0l-0.0052490234 -101.109116" fill-rule="evenodd"/></g></svg>